<svg id="Capa_1" enable-background="new 0 0 512 512" height="512" viewBox="0 0 512 512" width="512" xmlns="http://www.w3.org/2000/svg"><g><g><g><path d="m434.855 504.5h-283.336c-2.209 0-4-1.791-4-4v-16.343c0-3.564-4.309-5.348-6.828-2.828l-22 22c-.75.75-1.768 1.172-2.828 1.172h-38.719c-20.238 0-36.644-16.406-36.644-36.645v-311.81c0-1.515.856-2.9 2.211-3.578l20.633-10.317c2.948-1.474 2.948-5.681 0-7.155l-20.633-10.316c-1.355-.678-2.211-2.063-2.211-3.578v-76.958c0-20.238 16.406-36.644 36.644-36.644h119.859c1.061 0 2.078.421 2.828 1.172l11 11c1.562 1.562 4.095 1.562 5.657 0l11-11c.75-.75 1.768-1.172 2.828-1.172h204.538c20.238 0 36.645 16.406 36.645 36.644v284.616c0 1.515-.856 2.9-2.211 3.578l-20.633 10.317c-2.948 1.474-2.948 5.681 0 7.155l20.633 10.317c1.355.678 2.211 2.063 2.211 3.578v104.151c.001 20.238-16.405 36.644-36.644 36.644z" fill="#b0aab3"/><g><path d="m448.655 342.655 20.634-10.317c1.355-.678 2.211-2.062 2.211-3.578v-284.615c0-20.238-16.406-36.645-36.645-36.645h-30c20.238 0 36.645 16.406 36.645 36.645v284.615c0 1.515-.856 2.9-2.211 3.578l-20.634 10.317c-2.948 1.474-2.948 5.681 0 7.155l20.634 10.317c1.355.677 2.211 2.062 2.211 3.578v104.151c0 20.238-16.406 36.645-36.645 36.645h30c20.238 0 36.645-16.406 36.645-36.645v-104.151c0-1.515-.856-2.9-2.211-3.578l-20.634-10.317c-2.948-1.474-2.948-5.681 0-7.155z" fill="#a199a4"/></g><g><path d="m208.279 151.472c37.275-10.424 80.864 7.149 106.606 34.413 10.054 10.648 18.23 23.489 21.246 37.819 3.889 18.482-1.062 37.701-8.036 55.253-10.956 27.574-27.079 53.513-32.144 82.748-3.132 18.078-1.895 36.824-6.431 54.601-13.475 52.8-101.844 55.66-105.559-3.594-1.125-17.95 8.614-34.692 19.167-49.257 20.345-28.077 39.671-64.145 19.582-97.785-13.65-22.857-41.215-35.74-49.372-62.162-7.683-24.888 12.342-45.716 34.941-52.036z" fill="#766d78"/><path d="m336.131 223.704c-3.015-14.33-11.192-27.171-21.246-37.819-23.888-25.3-63.141-42.238-98.459-36.22 25.985 4.071 51.223 17.965 68.459 36.22 10.054 10.648 18.23 23.489 21.246 37.819 3.889 18.482-1.062 37.701-8.036 55.253-10.956 27.574-27.079 53.513-32.144 82.748-3.132 18.078-1.895 36.824-6.431 54.601-5.303 20.78-22.208 33.818-40.985 38.386 27.593 7.088 62.87-6.587 70.985-38.386 4.537-17.777 3.3-36.523 6.431-54.601 5.065-29.235 21.188-55.174 32.144-82.748 6.974-17.552 11.925-36.771 8.036-55.253z" fill="#655e67"/><g fill="#766d78"><ellipse cx="178.796" cy="93.166" rx="25.006" ry="37.696"/><ellipse cx="244.802" cy="95.534" rx="17.08" ry="25.747"/><ellipse cx="297.284" cy="112.521" rx="14.728" ry="22.202"/><ellipse cx="343.482" cy="146.803" rx="14.728" ry="22.202"/></g></g></g></g><path d="m125.5 281c0-4.142-3.358-7.5-7.5-7.5s-7.5 3.358-7.5 7.5 3.358 7.5 7.5 7.5 7.5-3.358 7.5-7.5zm143.882-185.466c0-18.643-10.797-33.247-24.58-33.247-13.782 0-24.579 14.604-24.579 33.247s10.797 33.247 24.579 33.247c13.783 0 24.58-14.604 24.58-33.247zm-34.159 0c0-10.443 5.058-18.247 9.579-18.247 4.522 0 9.58 7.804 9.58 18.247s-5.058 18.247-9.58 18.247-9.579-7.804-9.579-18.247zm243.777 233.227v-284.616c0-24.342-19.803-44.145-44.145-44.145h-204.538c-3.071 0-5.959 1.196-8.132 3.368l-8.525 8.525-8.524-8.525c-2.172-2.172-5.061-3.368-8.132-3.368h-119.859c-24.342 0-44.145 19.803-44.145 44.145v76.958c0 4.384 2.436 8.325 6.356 10.286l14.373 7.187-14.375 7.188c-3.918 1.959-6.354 5.9-6.354 10.282v104.954c0 4.143 3.357 7.5 7.5 7.5s7.5-3.357 7.5-7.5v-102.791l18.699-9.35c3.921-1.96 6.356-5.902 6.356-10.286s-2.436-8.325-6.356-10.286l-18.699-9.348v-74.794c0-16.071 13.074-29.145 29.145-29.145h118.409l9.975 9.975c4.485 4.485 11.781 4.483 16.265 0l9.974-9.975h203.088c16.07 0 29.144 13.074 29.144 29.145v282.452l-18.7 9.35c-3.92 1.961-6.355 5.902-6.355 10.286s2.436 8.325 6.357 10.286l18.698 9.35v101.987c0 16.07-13.074 29.145-29.145 29.145h-279.836v-12.843c0-4.668-2.787-8.839-7.1-10.625-4.312-1.787-9.232-.809-12.532 2.492l-20.975 20.975h-37.267c-16.071 0-29.145-13.074-29.145-29.145v-171.855c0-4.143-3.357-7.5-7.5-7.5s-7.5 3.357-7.5 7.5v171.855c0 24.342 19.803 44.145 44.145 44.145h38.718c3.071 0 5.959-1.196 8.132-3.368l16.024-16.025v7.894c0 6.341 5.159 11.5 11.5 11.5h283.337c24.341-.001 44.144-19.804 44.144-44.146v-104.151c0-4.382-2.436-8.323-6.357-10.285l-14.373-7.187 14.376-7.188c3.918-1.96 6.354-5.9 6.354-10.283zm-370.875 37.936-17.054 29.303c-2.083 3.58-.87 8.171 2.71 10.255 3.518 2.048 8.151.908 10.255-2.71l17.054-29.303c2.083-3.58.87-8.171-2.71-10.255-3.578-2.083-8.172-.871-10.255 2.71zm61.412-194.611c-5.743 10.53-6.907 22.161-3.364 33.636 5.302 17.174 17.469 28.82 29.235 40.082 8.046 7.701 15.646 14.975 20.863 23.712 18.286 30.62-.664 63.936-19.217 89.539-10.272 14.177-21.895 33.141-20.579 54.127 1.755 27.997 21.522 47.838 50.359 50.546 30.454 2.86 62.231-15.302 69.953-45.567 2.752-10.786 3.499-21.752 4.221-32.356.54-7.93 1.051-15.419 2.332-22.819 3.273-18.893 11.387-36.296 19.976-54.721 4.013-8.608 8.162-17.51 11.749-26.538 9.34-23.507 12.011-42.435 8.404-59.567-1.404-6.674-3.877-13.352-7.351-19.849-1.953-3.652-6.494-5.032-10.15-3.078-3.653 1.953-5.031 6.497-3.078 10.15 2.804 5.244 4.789 10.582 5.901 15.865 2.97 14.114.534 30.3-7.666 50.939-3.427 8.624-7.482 17.325-11.405 25.739-8.626 18.504-17.545 37.638-21.159 58.498-1.415 8.166-1.976 16.399-2.518 24.36-.708 10.392-1.376 20.206-3.79 29.667-4.763 18.66-25.306 37.043-54.017 34.342-8.141-.765-34.854-5.66-36.791-36.55-.534-8.521 1.002-21.266 17.755-44.388 19.596-27.044 42.983-67.458 19.949-106.031-6.259-10.479-14.958-18.806-23.37-26.857-10.861-10.396-21.121-20.216-25.275-33.671-2.354-7.625-1.613-15.036 2.201-22.028 5.104-9.359 15.678-17.242 27.593-20.575 14.648-4.096 31.332-3.624 48.251 1.367 15.822 4.667 31.384 13.25 43.818 24.168 3.111 2.733 7.851 2.425 10.584-.687s2.426-7.851-.688-10.584c-30.617-26.886-72.228-38.154-106.005-28.709-15.912 4.451-29.641 14.857-36.721 27.838zm248.736-60.965c3.613-2.024 4.901-6.595 2.877-10.209l-19.107-34.108c-2.024-3.614-6.593-4.9-10.209-2.878-3.613 2.025-4.901 6.595-2.877 10.209l19.107 34.108c2.046 3.654 6.651 4.872 10.209 2.878zm-15.273 117.379c-4.142 0-7.5 3.358-7.5 7.5s3.358 7.5 7.5 7.5 7.5-3.358 7.5-7.5-3.358-7.5-7.5-7.5zm-22.5 157.5c0 4.142 3.358 7.5 7.5 7.5s7.5-3.358 7.5-7.5-3.358-7.5-7.5-7.5-7.5 3.358-7.5 7.5zm-60.988-273.479c0-16.656-9.764-29.703-22.228-29.703-12.465 0-22.229 13.047-22.229 29.703s9.764 29.703 22.229 29.703c12.464 0 22.228-13.047 22.228-29.703zm-29.456 0c0-8.838 4.351-14.703 7.229-14.703 2.877 0 7.228 5.864 7.228 14.703s-4.351 14.703-7.228 14.703c-2.879 0-7.229-5.864-7.229-14.703zm53.425 63.984c12.465 0 22.229-13.047 22.229-29.702 0-16.656-9.764-29.703-22.229-29.703-12.464 0-22.228 13.047-22.228 29.703.001 16.655 9.765 29.702 22.228 29.702zm0-44.404c2.878 0 7.229 5.864 7.229 14.703s-4.351 14.702-7.229 14.702c-2.877 0-7.228-5.864-7.228-14.702s4.351-14.703 7.228-14.703zm-164.685-84.131c-18.228 0-32.506 19.853-32.506 45.196s14.278 45.196 32.506 45.196c18.229 0 32.507-19.853 32.507-45.196s-14.279-45.196-32.507-45.196zm0 75.392c-9.325 0-17.506-14.11-17.506-30.196s8.181-30.196 17.506-30.196c9.326 0 17.507 14.11 17.507 30.196s-8.181 30.196-17.507 30.196z"/></g></svg>