<?xml version="1.0" encoding="iso-8859-1"?>
<!-- Generator: Adobe Illustrator 19.0.0, SVG Export Plug-In . SVG Version: 6.00 Build 0)  -->
<svg version="1.1" id="Capa_1" xmlns="http://www.w3.org/2000/svg" xmlns:xlink="http://www.w3.org/1999/xlink" x="0px" y="0px"
	 viewBox="0 0 211.628 211.628" style="enable-background:new 0 0 211.628 211.628;" xml:space="preserve">
<path style="fill:#F9AC54;" d="M109.96,6.065l4.562,14.039c0.514,1.58,1.987,2.65,3.647,2.65h14.761c3.715,0,5.26,4.755,2.255,6.938
	l-11.942,8.677c-1.345,0.976-1.906,2.707-1.393,4.287l4.562,14.039c1.149,3.533-2.896,6.472-5.902,4.287l-11.942-8.677
	c-1.345-0.976-3.164-0.976-4.509,0l-11.942,8.677c-3.005,2.185-7.05-0.754-5.902-4.287l4.562-14.039
	c0.514-1.58-0.05-3.311-1.393-4.287l-11.942-8.677c-3.005-2.185-1.461-6.938,2.255-6.938H94.46c1.661,0,3.133-1.07,3.647-2.65
	l4.562-14.039C103.812,2.531,108.811,2.531,109.96,6.065z"/>
<path d="M122.761,65.152c-1.483,0-2.966-0.469-4.26-1.406l-11.94-8.68c-0.143-0.106-0.346-0.106-0.497,0l-11.94,8.677
	c-2.587,1.881-5.931,1.881-8.523,0c-2.587-1.881-3.62-5.06-2.633-8.1l4.564-14.044c0.056-0.174-0.007-0.36-0.154-0.469
	l-11.943-8.677c-2.587-1.877-3.62-5.057-2.633-8.1s3.693-5.011,6.893-5.011h14.763c0.183,0,0.343-0.116,0.399-0.29l4.56-14.041
	C100.407,1.968,103.114,0,106.314,0c3.197,0,5.903,1.966,6.893,5.007c0,0,0,0,0,0.003l4.56,14.041
	c0.056,0.174,0.217,0.29,0.399,0.29h14.763c3.197,0,5.903,1.966,6.89,5.007c0.99,3.043-0.043,6.223-2.63,8.103l-11.943,8.677
	c-0.147,0.109-0.21,0.297-0.154,0.473l4.564,14.037c0.986,3.043-0.046,6.223-2.633,8.103
	C125.728,64.681,124.244,65.152,122.761,65.152z M106.311,48.155c1.493,0,2.987,0.463,4.26,1.386l11.943,8.68
	c0.094,0.067,0.244,0.183,0.497-0.003c0.247-0.179,0.189-0.353,0.154-0.469l-4.564-14.037c-0.973-2.997,0.087-6.253,2.633-8.103
	l11.943-8.677c0.097-0.073,0.247-0.179,0.154-0.473c-0.097-0.29-0.28-0.29-0.399-0.29h-14.763c-3.15,0-5.92-2.014-6.893-5.011
	l-4.56-14.037c-0.036-0.116-0.094-0.294-0.399-0.294c-0.311,0-0.367,0.177-0.403,0.294l-4.56,14.037
	c-0.973,2.997-3.743,5.011-6.893,5.011H79.697c-0.123,0-0.307,0-0.399,0.29c-0.094,0.294,0.053,0.399,0.154,0.469l11.943,8.68
	c2.546,1.85,3.606,5.106,2.633,8.1l-4.564,14.044c-0.036,0.113-0.094,0.287,0.154,0.466c0.253,0.186,0.403,0.07,0.497,0l11.94-8.673
	C103.324,48.618,104.817,48.155,106.311,48.155z"/>
<path style="fill:#DDDDDD;" d="M142.054,140.105l-24.136,24.136L52.75,99.074c-13.329-13.329-13.329-34.942,0-48.271l0,0
	L142.054,140.105z"/>
<path d="M117.918,167.654c-0.874,0-1.746-0.333-2.413-1l-65.167-65.167c-14.64-14.64-14.64-38.46,0-53.1
	c1.333-1.333,3.494-1.333,4.826,0l89.303,89.303c1.333,1.333,1.333,3.494,0,4.826l-24.137,24.137
	C119.664,167.322,118.792,167.654,117.918,167.654z M52.884,55.762c-9.643,12.051-8.883,29.737,2.28,40.9l62.754,62.754
	l19.309-19.309L52.884,55.762z"/>
<path style="fill:#DDDDDD;" d="M70.06,140.105l24.136,24.136l65.167-65.167c13.329-13.329,13.329-34.942,0-48.271l0,0L70.06,140.105
	z"/>
<path d="M94.193,167.654L94.193,167.654c-0.906,0-1.773-0.36-2.413-1l-24.134-24.137c-1.333-1.333-1.333-3.494,0-4.826
	l89.303-89.303c1.333-1.333,3.494-1.333,4.826,0c14.64,14.64,14.64,38.46,0,53.1l-65.171,65.167
	C95.967,167.294,95.101,167.654,94.193,167.654z M74.888,140.105l19.306,19.309l62.756-62.754
	c11.163-11.163,11.923-28.849,2.28-40.9L74.888,140.105z"/>
<circle style="fill:#DDDDDD;" cx="104.108" cy="128.002" r="5.12"/>
<path d="M104.108,136.535c-4.707,0-8.533-3.826-8.533-8.533c0-4.707,3.826-8.533,8.533-8.533s8.533,3.826,8.533,8.533
	C112.641,132.709,108.814,136.535,104.108,136.535z M104.108,126.295c-0.94,0-1.707,0.766-1.707,1.707
	c0,0.94,0.766,1.707,1.707,1.707c0.94,0,1.707-0.766,1.707-1.707C105.814,127.061,105.048,126.295,104.108,126.295z"/>
<path style="fill:#EC5582;" d="M58.028,139.948c-18.852,0-34.133,15.281-34.133,34.133s15.281,34.133,34.133,34.133
	s34.133-15.281,34.133-34.133S76.879,139.948,58.028,139.948z M58.028,194.562c-11.31,0-20.48-9.17-20.48-20.48
	s9.17-20.48,20.48-20.48s20.48,9.17,20.48,20.48S69.338,194.562,58.028,194.562z"/>
<path d="M58.028,211.628c-20.704,0-37.547-16.843-37.547-37.547s16.843-37.547,37.547-37.547s37.547,16.843,37.547,37.547
	S78.731,211.628,58.028,211.628z M58.028,143.362c-16.94,0-30.72,13.78-30.72,30.72s13.78,30.72,30.72,30.72
	s30.72-13.78,30.72-30.72S74.968,143.362,58.028,143.362z M58.028,197.975c-13.174,0-23.893-10.72-23.893-23.893
	s10.72-23.893,23.893-23.893c13.174,0,23.893,10.72,23.893,23.893S71.201,197.975,58.028,197.975z M58.028,157.015
	c-9.411,0-17.067,7.656-17.067,17.067s7.656,17.067,17.067,17.067s17.067-7.656,17.067-17.067S67.438,157.015,58.028,157.015z"/>
<path style="fill:#EC5582;" d="M153.601,139.948c-18.852,0-34.133,15.281-34.133,34.133s15.281,34.133,34.133,34.133
	s34.133-15.281,34.133-34.133S172.453,139.948,153.601,139.948z M153.601,194.562c-11.31,0-20.48-9.17-20.48-20.48
	s9.17-20.48,20.48-20.48c11.31,0,20.48,9.17,20.48,20.48S164.911,194.562,153.601,194.562z"/>
<path d="M153.601,211.628c-20.704,0-37.547-16.843-37.547-37.547s16.843-37.547,37.547-37.547s37.547,16.843,37.547,37.547
	S174.304,211.628,153.601,211.628z M153.601,143.362c-16.94,0-30.72,13.78-30.72,30.72s13.78,30.72,30.72,30.72
	s30.72-13.78,30.72-30.72S170.541,143.362,153.601,143.362z M153.601,197.975c-13.174,0-23.893-10.72-23.893-23.893
	s10.72-23.893,23.893-23.893s23.893,10.72,23.893,23.893S166.775,197.975,153.601,197.975z M153.601,157.015
	c-9.411,0-17.067,7.656-17.067,17.067s7.656,17.067,17.067,17.067c9.411,0,17.067-7.656,17.067-17.067
	S163.011,157.015,153.601,157.015z"/>
<g>
</g>
<g>
</g>
<g>
</g>
<g>
</g>
<g>
</g>
<g>
</g>
<g>
</g>
<g>
</g>
<g>
</g>
<g>
</g>
<g>
</g>
<g>
</g>
<g>
</g>
<g>
</g>
<g>
</g>
</svg>
